<mxfile host="app.diagrams.net" agent="Mozilla/5.0 (Macintosh; Intel Mac OS X 10_15_7) AppleWebKit/537.36 (KHTML, like Gecko) Chrome/135.0.0.0 Safari/537.36" version="24.9.0">
  <diagram name="Page-1" id="H12lvpWTNpb4CghwBzhO">
    <mxGraphModel dx="854" dy="654" grid="1" gridSize="10" guides="1" tooltips="1" connect="1" arrows="1" fold="1" page="1" pageScale="1" pageWidth="827" pageHeight="1169" math="0" shadow="0">
      <root>
        <mxCell id="0" />
        <mxCell id="1" parent="0" />
        <mxCell id="o00eqZ2eqSjmYFLEJ0mG-99" value="" style="rounded=0;whiteSpace=wrap;html=1;" vertex="1" parent="1">
          <mxGeometry x="1206" y="228" width="244" height="123" as="geometry" />
        </mxCell>
        <mxCell id="o00eqZ2eqSjmYFLEJ0mG-1" value="" style="rounded=0;whiteSpace=wrap;html=1;" vertex="1" parent="1">
          <mxGeometry x="124" y="32" width="540" height="360" as="geometry" />
        </mxCell>
        <mxCell id="o00eqZ2eqSjmYFLEJ0mG-2" value="WEB" style="text;html=1;align=center;verticalAlign=middle;whiteSpace=wrap;rounded=0;" vertex="1" parent="1">
          <mxGeometry x="378" y="37" width="60" height="30" as="geometry" />
        </mxCell>
        <mxCell id="o00eqZ2eqSjmYFLEJ0mG-3" value="" style="rounded=0;whiteSpace=wrap;html=1;" vertex="1" parent="1">
          <mxGeometry x="134" y="72" width="160" height="110" as="geometry" />
        </mxCell>
        <mxCell id="o00eqZ2eqSjmYFLEJ0mG-4" value="&lt;h1 style=&quot;margin-top: 0px;&quot;&gt;&lt;font style=&quot;font-size: 14px;&quot;&gt;Certificates&lt;/font&gt;&lt;/h1&gt;&lt;p&gt;&lt;font style=&quot;font-size: 11px;&quot;&gt;- openssl RSA private key&lt;br&gt;- certificate signing file&lt;br&gt;- certifcate generate&lt;/font&gt;&lt;/p&gt;" style="text;html=1;whiteSpace=wrap;overflow=hidden;rounded=0;" vertex="1" parent="1">
          <mxGeometry x="144" y="67" width="180" height="120" as="geometry" />
        </mxCell>
        <mxCell id="o00eqZ2eqSjmYFLEJ0mG-5" value="" style="rounded=0;whiteSpace=wrap;html=1;" vertex="1" parent="1">
          <mxGeometry x="314" y="72" width="160" height="90" as="geometry" />
        </mxCell>
        <mxCell id="o00eqZ2eqSjmYFLEJ0mG-6" value="" style="rounded=0;whiteSpace=wrap;html=1;" vertex="1" parent="1">
          <mxGeometry x="314" y="182" width="160" height="90" as="geometry" />
        </mxCell>
        <mxCell id="o00eqZ2eqSjmYFLEJ0mG-8" value="" style="rounded=0;whiteSpace=wrap;html=1;" vertex="1" parent="1">
          <mxGeometry x="314" y="292" width="160" height="90" as="geometry" />
        </mxCell>
        <mxCell id="o00eqZ2eqSjmYFLEJ0mG-9" value="" style="rounded=0;whiteSpace=wrap;html=1;" vertex="1" parent="1">
          <mxGeometry x="494" y="72" width="160" height="100" as="geometry" />
        </mxCell>
        <mxCell id="o00eqZ2eqSjmYFLEJ0mG-10" value="" style="rounded=0;whiteSpace=wrap;html=1;" vertex="1" parent="1">
          <mxGeometry x="134" y="202" width="160" height="100" as="geometry" />
        </mxCell>
        <mxCell id="o00eqZ2eqSjmYFLEJ0mG-11" value="&lt;h1 style=&quot;margin-top: 0px;&quot;&gt;&lt;font style=&quot;font-size: 14px;&quot;&gt;Utils&lt;/font&gt;&lt;/h1&gt;&lt;p&gt;&lt;font style=&quot;font-size: 12px;&quot;&gt;- get Sha256, Sha1 for certificate for pinning&amp;nbsp;&lt;br&gt;- get ngrok Url&lt;/font&gt;&lt;/p&gt;" style="text;html=1;whiteSpace=wrap;overflow=hidden;rounded=0;" vertex="1" parent="1">
          <mxGeometry x="144" y="192" width="140" height="100" as="geometry" />
        </mxCell>
        <mxCell id="o00eqZ2eqSjmYFLEJ0mG-14" value="&lt;h1 style=&quot;margin-top: 0px;&quot;&gt;&lt;font style=&quot;font-size: 14px;&quot;&gt;Models&lt;/font&gt;&lt;/h1&gt;&lt;p&gt;&lt;font style=&quot;font-size: 11px;&quot;&gt;- User(email,pswd,created at)&lt;br&gt;- Note(title, desc, user, crt, upd)&lt;br&gt;- Refresh token&lt;br&gt;(token, user, exp, crt, revoked)&lt;br&gt;&lt;br&gt;&lt;/font&gt;&lt;/p&gt;" style="text;html=1;whiteSpace=wrap;overflow=hidden;rounded=0;" vertex="1" parent="1">
          <mxGeometry x="494" y="57" width="180" height="120" as="geometry" />
        </mxCell>
        <mxCell id="o00eqZ2eqSjmYFLEJ0mG-15" value="&lt;h1 style=&quot;margin-top: 0px;&quot;&gt;&lt;font style=&quot;font-size: 14px;&quot;&gt;Controller&lt;/font&gt;&lt;/h1&gt;&lt;p&gt;&lt;font style=&quot;font-size: 11px;&quot;&gt;- AuthController(JWT)&lt;br&gt;- NoteController&lt;br&gt;&lt;br&gt;&lt;/font&gt;&lt;/p&gt;" style="text;html=1;whiteSpace=wrap;overflow=hidden;rounded=0;" vertex="1" parent="1">
          <mxGeometry x="314" y="76.5" width="144" height="81" as="geometry" />
        </mxCell>
        <mxCell id="o00eqZ2eqSjmYFLEJ0mG-16" value="&lt;h1 style=&quot;margin-top: 0px;&quot;&gt;&lt;font style=&quot;font-size: 14px;&quot;&gt;Middleware&lt;/font&gt;&lt;/h1&gt;&lt;p&gt;&lt;font style=&quot;font-size: 11px;&quot;&gt;- auth&lt;br&gt;- GZIP compression &amp;amp; CORS&lt;br&gt;- response/request filtering&lt;br&gt;&lt;br&gt;&lt;/font&gt;&lt;/p&gt;" style="text;html=1;whiteSpace=wrap;overflow=hidden;rounded=0;" vertex="1" parent="1">
          <mxGeometry x="314" y="167" width="180" height="120" as="geometry" />
        </mxCell>
        <mxCell id="o00eqZ2eqSjmYFLEJ0mG-17" value="&lt;h1 style=&quot;margin-top: 0px;&quot;&gt;&lt;font style=&quot;font-size: 14px;&quot;&gt;Routes&lt;/font&gt;&lt;/h1&gt;&lt;p&gt;&lt;font style=&quot;font-size: 11px;&quot;&gt;- authRotues&lt;br&gt;- notesRoutes&lt;br&gt;&lt;br&gt;&lt;/font&gt;&lt;/p&gt;" style="text;html=1;whiteSpace=wrap;overflow=hidden;rounded=0;" vertex="1" parent="1">
          <mxGeometry x="314" y="282" width="180" height="120" as="geometry" />
        </mxCell>
        <mxCell id="o00eqZ2eqSjmYFLEJ0mG-18" value="Server.js" style="ellipse;whiteSpace=wrap;html=1;aspect=fixed;" vertex="1" parent="1">
          <mxGeometry x="494" y="232" width="80" height="80" as="geometry" />
        </mxCell>
        <mxCell id="o00eqZ2eqSjmYFLEJ0mG-20" style="edgeStyle=orthogonalEdgeStyle;rounded=0;orthogonalLoop=1;jettySize=auto;html=1;exitX=0;exitY=1;exitDx=0;exitDy=0;entryX=0.391;entryY=-0.062;entryDx=0;entryDy=0;entryPerimeter=0;" edge="1" parent="1" source="o00eqZ2eqSjmYFLEJ0mG-19" target="o00eqZ2eqSjmYFLEJ0mG-22">
          <mxGeometry relative="1" as="geometry">
            <mxPoint x="150" y="660" as="targetPoint" />
          </mxGeometry>
        </mxCell>
        <mxCell id="o00eqZ2eqSjmYFLEJ0mG-21" style="edgeStyle=orthogonalEdgeStyle;rounded=0;orthogonalLoop=1;jettySize=auto;html=1;entryX=0.5;entryY=0.054;entryDx=0;entryDy=0;entryPerimeter=0;" edge="1" parent="1" source="o00eqZ2eqSjmYFLEJ0mG-19" target="o00eqZ2eqSjmYFLEJ0mG-23">
          <mxGeometry relative="1" as="geometry">
            <mxPoint x="376.5" y="660" as="targetPoint" />
          </mxGeometry>
        </mxCell>
        <mxCell id="o00eqZ2eqSjmYFLEJ0mG-19" value="Server.js" style="ellipse;whiteSpace=wrap;html=1;aspect=fixed;" vertex="1" parent="1">
          <mxGeometry x="334" y="505" width="85" height="85" as="geometry" />
        </mxCell>
        <mxCell id="o00eqZ2eqSjmYFLEJ0mG-22" value="Auth" style="text;html=1;align=center;verticalAlign=middle;resizable=0;points=[];autosize=1;strokeColor=none;fillColor=none;" vertex="1" parent="1">
          <mxGeometry x="130" y="678" width="50" height="30" as="geometry" />
        </mxCell>
        <mxCell id="o00eqZ2eqSjmYFLEJ0mG-23" value="Notes (token in header)" style="text;html=1;align=center;verticalAlign=middle;resizable=0;points=[];autosize=1;strokeColor=none;fillColor=none;" vertex="1" parent="1">
          <mxGeometry x="301.5" y="678" width="150" height="30" as="geometry" />
        </mxCell>
        <mxCell id="o00eqZ2eqSjmYFLEJ0mG-28" value="Mongo" style="shape=cylinder3;whiteSpace=wrap;html=1;boundedLbl=1;backgroundOutline=1;size=15;" vertex="1" parent="1">
          <mxGeometry x="594" y="232" width="60" height="80" as="geometry" />
        </mxCell>
        <mxCell id="o00eqZ2eqSjmYFLEJ0mG-29" value="&lt;span data-darkreader-inline-bgcolor=&quot;&quot; data-darkreader-inline-color=&quot;&quot; style=&quot;color: rgb(106, 153, 85); background-color: rgb(31, 31, 31); font-family: Menlo, Monaco, &amp;quot;Courier New&amp;quot;, monospace; white-space-collapse: preserve; --darkreader-inline-color: var(--darkreader-text-6a9955, #86b173); --darkreader-inline-bgcolor: var(--darkreader-background-1f1f1f, #17191a);&quot;&gt;POST /api/auth/register&lt;br&gt;&lt;/span&gt;" style="text;html=1;align=center;verticalAlign=middle;resizable=0;points=[];autosize=1;strokeColor=none;fillColor=none;" vertex="1" parent="1">
          <mxGeometry x="69" y="708" width="190" height="30" as="geometry" />
        </mxCell>
        <mxCell id="o00eqZ2eqSjmYFLEJ0mG-30" value="&lt;span data-darkreader-inline-bgcolor=&quot;&quot; data-darkreader-inline-color=&quot;&quot; style=&quot;color: rgb(106, 153, 85); background-color: rgb(31, 31, 31); font-family: Menlo, Monaco, &amp;quot;Courier New&amp;quot;, monospace; white-space-collapse: preserve; --darkreader-inline-color: var(--darkreader-text-6a9955, #86b173); --darkreader-inline-bgcolor: var(--darkreader-background-1f1f1f, #17191a);&quot;&gt;POST /api/auth/login&lt;br&gt;&lt;/span&gt;" style="text;html=1;align=center;verticalAlign=middle;resizable=0;points=[];autosize=1;strokeColor=none;fillColor=none;" vertex="1" parent="1">
          <mxGeometry x="67" y="738" width="170" height="30" as="geometry" />
        </mxCell>
        <mxCell id="o00eqZ2eqSjmYFLEJ0mG-31" value="&lt;span data-darkreader-inline-bgcolor=&quot;&quot; data-darkreader-inline-color=&quot;&quot; style=&quot;color: rgb(106, 153, 85); background-color: rgb(31, 31, 31); font-family: Menlo, Monaco, &amp;quot;Courier New&amp;quot;, monospace; white-space-collapse: preserve; --darkreader-inline-color: var(--darkreader-text-6a9955, #86b173); --darkreader-inline-bgcolor: var(--darkreader-background-1f1f1f, #17191a);&quot;&gt;POST /api/auth/refresh&lt;br&gt;&lt;/span&gt;" style="text;html=1;align=center;verticalAlign=middle;resizable=0;points=[];autosize=1;strokeColor=none;fillColor=none;" vertex="1" parent="1">
          <mxGeometry x="70" y="770" width="180" height="30" as="geometry" />
        </mxCell>
        <mxCell id="o00eqZ2eqSjmYFLEJ0mG-32" value="&lt;span data-darkreader-inline-bgcolor=&quot;&quot; data-darkreader-inline-color=&quot;&quot; style=&quot;color: rgb(106, 153, 85); background-color: rgb(31, 31, 31); font-family: Menlo, Monaco, &amp;quot;Courier New&amp;quot;, monospace; white-space-collapse: preserve; --darkreader-inline-color: var(--darkreader-text-6a9955, #86b173); --darkreader-inline-bgcolor: var(--darkreader-background-1f1f1f, #17191a);&quot;&gt;POST /api/auth/logout&lt;br&gt;&lt;/span&gt;" style="text;html=1;align=center;verticalAlign=middle;resizable=0;points=[];autosize=1;strokeColor=none;fillColor=none;" vertex="1" parent="1">
          <mxGeometry x="67" y="810" width="180" height="30" as="geometry" />
        </mxCell>
        <mxCell id="o00eqZ2eqSjmYFLEJ0mG-33" value="&lt;span data-darkreader-inline-bgcolor=&quot;&quot; data-darkreader-inline-color=&quot;&quot; style=&quot;color: rgb(106, 153, 85); background-color: rgb(31, 31, 31); font-family: Menlo, Monaco, &amp;quot;Courier New&amp;quot;, monospace; white-space-collapse: preserve; --darkreader-inline-color: var(--darkreader-text-6a9955, #86b173); --darkreader-inline-bgcolor: var(--darkreader-background-1f1f1f, #17191a);&quot;&gt;GET /api/auth/user&lt;br&gt;&lt;/span&gt;" style="text;html=1;align=center;verticalAlign=middle;resizable=0;points=[];autosize=1;strokeColor=none;fillColor=none;" vertex="1" parent="1">
          <mxGeometry x="70" y="850" width="150" height="30" as="geometry" />
        </mxCell>
        <mxCell id="o00eqZ2eqSjmYFLEJ0mG-34" value="&lt;span data-darkreader-inline-bgcolor=&quot;&quot; data-darkreader-inline-color=&quot;&quot; style=&quot;color: rgb(106, 153, 85); background-color: rgb(31, 31, 31); font-family: Menlo, Monaco, &amp;quot;Courier New&amp;quot;, monospace; white-space-collapse: preserve; --darkreader-inline-color: var(--darkreader-text-6a9955, #86b173); --darkreader-inline-bgcolor: var(--darkreader-background-1f1f1f, #17191a);&quot;&gt;GET /api/notes&lt;br&gt;&lt;/span&gt;" style="text;html=1;align=center;verticalAlign=middle;resizable=0;points=[];autosize=1;strokeColor=none;fillColor=none;" vertex="1" parent="1">
          <mxGeometry x="299" y="708" width="120" height="30" as="geometry" />
        </mxCell>
        <mxCell id="o00eqZ2eqSjmYFLEJ0mG-35" value="&lt;span data-darkreader-inline-bgcolor=&quot;&quot; data-darkreader-inline-color=&quot;&quot; style=&quot;color: rgb(106, 153, 85); background-color: rgb(31, 31, 31); font-family: Menlo, Monaco, &amp;quot;Courier New&amp;quot;, monospace; white-space-collapse: preserve; --darkreader-inline-color: var(--darkreader-text-6a9955, #86b173); --darkreader-inline-bgcolor: var(--darkreader-background-1f1f1f, #17191a);&quot;&gt;GET /api/notes/id&lt;br&gt;&lt;/span&gt;" style="text;html=1;align=center;verticalAlign=middle;resizable=0;points=[];autosize=1;strokeColor=none;fillColor=none;" vertex="1" parent="1">
          <mxGeometry x="296" y="738" width="150" height="30" as="geometry" />
        </mxCell>
        <mxCell id="o00eqZ2eqSjmYFLEJ0mG-36" value="&lt;span data-darkreader-inline-bgcolor=&quot;&quot; data-darkreader-inline-color=&quot;&quot; style=&quot;color: rgb(106, 153, 85); background-color: rgb(31, 31, 31); font-family: Menlo, Monaco, &amp;quot;Courier New&amp;quot;, monospace; white-space-collapse: preserve; --darkreader-inline-color: var(--darkreader-text-6a9955, #86b173); --darkreader-inline-bgcolor: var(--darkreader-background-1f1f1f, #17191a);&quot;&gt;POST /api/notes&lt;br&gt;&lt;/span&gt;" style="text;html=1;align=center;verticalAlign=middle;resizable=0;points=[];autosize=1;strokeColor=none;fillColor=none;" vertex="1" parent="1">
          <mxGeometry x="298" y="770" width="130" height="30" as="geometry" />
        </mxCell>
        <mxCell id="o00eqZ2eqSjmYFLEJ0mG-37" value="&lt;span data-darkreader-inline-bgcolor=&quot;&quot; data-darkreader-inline-color=&quot;&quot; style=&quot;color: rgb(106, 153, 85); background-color: rgb(31, 31, 31); font-family: Menlo, Monaco, &amp;quot;Courier New&amp;quot;, monospace; white-space-collapse: preserve; --darkreader-inline-color: var(--darkreader-text-6a9955, #86b173); --darkreader-inline-bgcolor: var(--darkreader-background-1f1f1f, #17191a);&quot;&gt;PUT /api/notes/id&lt;br&gt;&lt;/span&gt;" style="text;html=1;align=center;verticalAlign=middle;resizable=0;points=[];autosize=1;strokeColor=none;fillColor=none;" vertex="1" parent="1">
          <mxGeometry x="296" y="810" width="150" height="30" as="geometry" />
        </mxCell>
        <mxCell id="o00eqZ2eqSjmYFLEJ0mG-38" value="&lt;span data-darkreader-inline-bgcolor=&quot;&quot; data-darkreader-inline-color=&quot;&quot; style=&quot;color: rgb(106, 153, 85); background-color: rgb(31, 31, 31); font-family: Menlo, Monaco, &amp;quot;Courier New&amp;quot;, monospace; white-space-collapse: preserve; --darkreader-inline-color: var(--darkreader-text-6a9955, #86b173); --darkreader-inline-bgcolor: var(--darkreader-background-1f1f1f, #17191a);&quot;&gt;DELETE /api/notes/id&lt;br&gt;&lt;/span&gt;" style="text;html=1;align=center;verticalAlign=middle;resizable=0;points=[];autosize=1;strokeColor=none;fillColor=none;" vertex="1" parent="1">
          <mxGeometry x="298" y="850" width="170" height="30" as="geometry" />
        </mxCell>
        <mxCell id="o00eqZ2eqSjmYFLEJ0mG-41" value="" style="edgeStyle=orthogonalEdgeStyle;rounded=0;orthogonalLoop=1;jettySize=auto;html=1;" edge="1" parent="1" source="o00eqZ2eqSjmYFLEJ0mG-39" target="o00eqZ2eqSjmYFLEJ0mG-40">
          <mxGeometry relative="1" as="geometry" />
        </mxCell>
        <mxCell id="o00eqZ2eqSjmYFLEJ0mG-39" value="&lt;span data-darkreader-inline-bgcolor=&quot;&quot; data-darkreader-inline-color=&quot;&quot; style=&quot;color: rgb(106, 153, 85); background-color: rgb(31, 31, 31); font-family: Menlo, Monaco, &amp;quot;Courier New&amp;quot;, monospace; white-space-collapse: preserve; --darkreader-inline-color: var(--darkreader-text-6a9955, #86b173); --darkreader-inline-bgcolor: var(--darkreader-background-1f1f1f, #17191a);&quot;&gt;POST /api/auth/login&lt;br&gt;&lt;/span&gt;" style="text;html=1;align=center;verticalAlign=middle;resizable=0;points=[];autosize=1;strokeColor=none;fillColor=none;" vertex="1" parent="1">
          <mxGeometry x="67" y="930" width="170" height="30" as="geometry" />
        </mxCell>
        <mxCell id="o00eqZ2eqSjmYFLEJ0mG-40" value="&lt;span data-darkreader-inline-bgcolor=&quot;&quot; data-darkreader-inline-color=&quot;&quot; style=&quot;color: rgb(106, 153, 85); background-color: rgb(31, 31, 31); font-family: Menlo, Monaco, &amp;quot;Courier New&amp;quot;, monospace; white-space-collapse: preserve; --darkreader-inline-color: var(--darkreader-text-6a9955, #86b173); --darkreader-inline-bgcolor: var(--darkreader-background-1f1f1f, #17191a);&quot;&gt;token(short lived) cache&lt;br&gt; refreshToken(long lived) server&lt;br&gt;expires in : 300s = 5min&lt;br&gt;&lt;br&gt;&lt;/span&gt;" style="text;html=1;align=center;verticalAlign=middle;resizable=0;points=[];autosize=1;strokeColor=none;fillColor=none;" vertex="1" parent="1">
          <mxGeometry x="277" y="910" width="250" height="70" as="geometry" />
        </mxCell>
        <mxCell id="o00eqZ2eqSjmYFLEJ0mG-43" value="" style="edgeStyle=orthogonalEdgeStyle;rounded=0;orthogonalLoop=1;jettySize=auto;html=1;" edge="1" parent="1" source="o00eqZ2eqSjmYFLEJ0mG-42">
          <mxGeometry relative="1" as="geometry">
            <mxPoint x="310" y="1015" as="targetPoint" />
            <Array as="points">
              <mxPoint x="310" y="1015" />
            </Array>
          </mxGeometry>
        </mxCell>
        <mxCell id="o00eqZ2eqSjmYFLEJ0mG-42" value="&lt;span data-darkreader-inline-bgcolor=&quot;&quot; data-darkreader-inline-color=&quot;&quot; style=&quot;color: rgb(106, 153, 85); background-color: rgb(31, 31, 31); font-family: Menlo, Monaco, &amp;quot;Courier New&amp;quot;, monospace; white-space-collapse: preserve; --darkreader-inline-color: var(--darkreader-text-6a9955, #86b173); --darkreader-inline-bgcolor: var(--darkreader-background-1f1f1f, #17191a);&quot;&gt;POST /api/auth/refresh&lt;br&gt;&lt;/span&gt;" style="text;html=1;align=center;verticalAlign=middle;resizable=0;points=[];autosize=1;strokeColor=none;fillColor=none;" vertex="1" parent="1">
          <mxGeometry x="69" y="1000" width="180" height="30" as="geometry" />
        </mxCell>
        <mxCell id="o00eqZ2eqSjmYFLEJ0mG-44" value="&lt;span data-darkreader-inline-bgcolor=&quot;&quot; data-darkreader-inline-color=&quot;&quot; style=&quot;color: rgb(106, 153, 85); background-color: rgb(31, 31, 31); font-family: Menlo, Monaco, &amp;quot;Courier New&amp;quot;, monospace; white-space-collapse: preserve; --darkreader-inline-color: var(--darkreader-text-6a9955, #86b173); --darkreader-inline-bgcolor: var(--darkreader-background-1f1f1f, #17191a);&quot;&gt;token(short lived)&lt;br&gt;expires in : 300s = 5min&lt;br&gt;&lt;br&gt;&lt;/span&gt;" style="text;html=1;align=center;verticalAlign=middle;resizable=0;points=[];autosize=1;strokeColor=none;fillColor=none;" vertex="1" parent="1">
          <mxGeometry x="308" y="985" width="200" height="60" as="geometry" />
        </mxCell>
        <mxCell id="o00eqZ2eqSjmYFLEJ0mG-46" value="" style="edgeStyle=orthogonalEdgeStyle;rounded=0;orthogonalLoop=1;jettySize=auto;html=1;" edge="1" parent="1" source="o00eqZ2eqSjmYFLEJ0mG-45">
          <mxGeometry relative="1" as="geometry">
            <mxPoint x="310" y="1060" as="targetPoint" />
          </mxGeometry>
        </mxCell>
        <mxCell id="o00eqZ2eqSjmYFLEJ0mG-45" value="&lt;span data-darkreader-inline-bgcolor=&quot;&quot; data-darkreader-inline-color=&quot;&quot; style=&quot;color: rgb(106, 153, 85); background-color: rgb(31, 31, 31); font-family: Menlo, Monaco, &amp;quot;Courier New&amp;quot;, monospace; white-space-collapse: preserve; --darkreader-inline-color: var(--darkreader-text-6a9955, #86b173); --darkreader-inline-bgcolor: var(--darkreader-background-1f1f1f, #17191a);&quot;&gt;GET /api/notes&lt;br&gt;&lt;/span&gt;" style="text;html=1;align=center;verticalAlign=middle;resizable=0;points=[];autosize=1;strokeColor=none;fillColor=none;" vertex="1" parent="1">
          <mxGeometry x="80" y="1045" width="120" height="30" as="geometry" />
        </mxCell>
        <mxCell id="o00eqZ2eqSjmYFLEJ0mG-47" value="Auth token" style="text;html=1;align=center;verticalAlign=middle;resizable=0;points=[];autosize=1;strokeColor=none;fillColor=none;" vertex="1" parent="1">
          <mxGeometry x="200" y="1038" width="80" height="30" as="geometry" />
        </mxCell>
        <mxCell id="o00eqZ2eqSjmYFLEJ0mG-48" value="&lt;span data-darkreader-inline-bgcolor=&quot;&quot; data-darkreader-inline-color=&quot;&quot; style=&quot;color: rgb(106, 153, 85); background-color: rgb(31, 31, 31); font-family: Menlo, Monaco, &amp;quot;Courier New&amp;quot;, monospace; white-space-collapse: preserve; --darkreader-inline-color: var(--darkreader-text-6a9955, #86b173); --darkreader-inline-bgcolor: var(--darkreader-background-1f1f1f, #17191a);&quot;&gt;all notes for that user&lt;br&gt; after matching &lt;br/&gt;decoded jwt user and notes &lt;br/&gt;belong to that user&lt;br&gt;&lt;/span&gt;" style="text;html=1;align=center;verticalAlign=middle;resizable=0;points=[];autosize=1;strokeColor=none;fillColor=none;" vertex="1" parent="1">
          <mxGeometry x="294" y="1038" width="220" height="70" as="geometry" />
        </mxCell>
        <mxCell id="o00eqZ2eqSjmYFLEJ0mG-53" style="edgeStyle=orthogonalEdgeStyle;rounded=0;orthogonalLoop=1;jettySize=auto;html=1;" edge="1" parent="1" source="o00eqZ2eqSjmYFLEJ0mG-51" target="o00eqZ2eqSjmYFLEJ0mG-52">
          <mxGeometry relative="1" as="geometry" />
        </mxCell>
        <mxCell id="o00eqZ2eqSjmYFLEJ0mG-51" value="&lt;span data-darkreader-inline-bgcolor=&quot;&quot; data-darkreader-inline-color=&quot;&quot; style=&quot;color: rgb(106, 153, 85); background-color: rgb(31, 31, 31); font-family: Menlo, Monaco, &amp;quot;Courier New&amp;quot;, monospace; white-space-collapse: preserve; --darkreader-inline-color: var(--darkreader-text-6a9955, #86b173); --darkreader-inline-bgcolor: var(--darkreader-background-1f1f1f, #17191a);&quot;&gt;POST /api/auth/logout&lt;br&gt;&lt;/span&gt;" style="text;html=1;align=center;verticalAlign=middle;resizable=0;points=[];autosize=1;strokeColor=none;fillColor=none;" vertex="1" parent="1">
          <mxGeometry x="49" y="1140" width="180" height="30" as="geometry" />
        </mxCell>
        <mxCell id="o00eqZ2eqSjmYFLEJ0mG-52" value="&lt;span data-darkreader-inline-bgcolor=&quot;&quot; data-darkreader-inline-color=&quot;&quot; style=&quot;color: rgb(106, 153, 85); background-color: rgb(31, 31, 31); font-family: Menlo, Monaco, &amp;quot;Courier New&amp;quot;, monospace; white-space-collapse: preserve; --darkreader-inline-color: var(--darkreader-text-6a9955, #86b173); --darkreader-inline-bgcolor: var(--darkreader-background-1f1f1f, #17191a);&quot;&gt;revoke refresh token &lt;br/&gt;of that user&lt;/span&gt;" style="text;html=1;align=center;verticalAlign=middle;resizable=0;points=[];autosize=1;strokeColor=none;fillColor=none;" vertex="1" parent="1">
          <mxGeometry x="299" y="1135" width="180" height="40" as="geometry" />
        </mxCell>
        <mxCell id="o00eqZ2eqSjmYFLEJ0mG-54" value="Refresh &lt;br&gt;token&amp;nbsp;" style="text;html=1;align=center;verticalAlign=middle;resizable=0;points=[];autosize=1;strokeColor=none;fillColor=none;" vertex="1" parent="1">
          <mxGeometry x="215" y="1113" width="70" height="40" as="geometry" />
        </mxCell>
        <mxCell id="o00eqZ2eqSjmYFLEJ0mG-55" value="Login Screen" style="rounded=0;whiteSpace=wrap;html=1;" vertex="1" parent="1">
          <mxGeometry x="860" y="82" width="120" height="70" as="geometry" />
        </mxCell>
        <mxCell id="o00eqZ2eqSjmYFLEJ0mG-56" value="Register Screen" style="rounded=0;whiteSpace=wrap;html=1;" vertex="1" parent="1">
          <mxGeometry x="860" y="167" width="120" height="70" as="geometry" />
        </mxCell>
        <mxCell id="o00eqZ2eqSjmYFLEJ0mG-57" value="Auth" style="text;html=1;align=center;verticalAlign=middle;resizable=0;points=[];autosize=1;strokeColor=none;fillColor=none;" vertex="1" parent="1">
          <mxGeometry x="895" y="44" width="50" height="30" as="geometry" />
        </mxCell>
        <mxCell id="o00eqZ2eqSjmYFLEJ0mG-58" value="Create Note Screen" style="rounded=0;whiteSpace=wrap;html=1;" vertex="1" parent="1">
          <mxGeometry x="1030" y="54" width="120" height="70" as="geometry" />
        </mxCell>
        <mxCell id="o00eqZ2eqSjmYFLEJ0mG-59" value="Edit Note Screen" style="rounded=0;whiteSpace=wrap;html=1;" vertex="1" parent="1">
          <mxGeometry x="1030" y="134" width="120" height="70" as="geometry" />
        </mxCell>
        <mxCell id="o00eqZ2eqSjmYFLEJ0mG-60" value="Notes list Screen" style="rounded=0;whiteSpace=wrap;html=1;" vertex="1" parent="1">
          <mxGeometry x="1030" y="222" width="120" height="70" as="geometry" />
        </mxCell>
        <mxCell id="o00eqZ2eqSjmYFLEJ0mG-61" value="Notes Detail Screen" style="rounded=0;whiteSpace=wrap;html=1;" vertex="1" parent="1">
          <mxGeometry x="1030" y="312" width="120" height="70" as="geometry" />
        </mxCell>
        <mxCell id="o00eqZ2eqSjmYFLEJ0mG-62" value="Notes" style="text;html=1;align=center;verticalAlign=middle;resizable=0;points=[];autosize=1;strokeColor=none;fillColor=none;" vertex="1" parent="1">
          <mxGeometry x="1065" y="19" width="50" height="30" as="geometry" />
        </mxCell>
        <mxCell id="o00eqZ2eqSjmYFLEJ0mG-71" value="Backend" style="rounded=0;whiteSpace=wrap;html=1;" vertex="1" parent="1">
          <mxGeometry x="1210" y="74" width="330" height="58" as="geometry" />
        </mxCell>
        <mxCell id="o00eqZ2eqSjmYFLEJ0mG-72" value="Api Service" style="rounded=0;whiteSpace=wrap;html=1;" vertex="1" parent="1">
          <mxGeometry x="1280" y="152" width="120" height="60" as="geometry" />
        </mxCell>
        <mxCell id="o00eqZ2eqSjmYFLEJ0mG-75" value="Auth&lt;br&gt;Repository" style="rounded=1;whiteSpace=wrap;html=1;" vertex="1" parent="1">
          <mxGeometry x="1216" y="241" width="110" height="98" as="geometry" />
        </mxCell>
        <mxCell id="o00eqZ2eqSjmYFLEJ0mG-76" value="Notes&lt;br&gt;Repository" style="rounded=1;whiteSpace=wrap;html=1;" vertex="1" parent="1">
          <mxGeometry x="1331" y="241" width="110" height="98" as="geometry" />
        </mxCell>
        <mxCell id="o00eqZ2eqSjmYFLEJ0mG-77" value="" style="endArrow=classic;html=1;rounded=0;" edge="1" parent="1" source="o00eqZ2eqSjmYFLEJ0mG-75" target="o00eqZ2eqSjmYFLEJ0mG-72">
          <mxGeometry width="50" height="50" relative="1" as="geometry">
            <mxPoint x="1080" y="358.5" as="sourcePoint" />
            <mxPoint x="1130" y="308.5" as="targetPoint" />
          </mxGeometry>
        </mxCell>
        <mxCell id="o00eqZ2eqSjmYFLEJ0mG-79" value="" style="endArrow=classic;html=1;rounded=0;exitX=0.354;exitY=0.019;exitDx=0;exitDy=0;exitPerimeter=0;entryX=0.615;entryY=1.005;entryDx=0;entryDy=0;entryPerimeter=0;" edge="1" parent="1" source="o00eqZ2eqSjmYFLEJ0mG-76" target="o00eqZ2eqSjmYFLEJ0mG-72">
          <mxGeometry width="50" height="50" relative="1" as="geometry">
            <mxPoint x="1350" y="240" as="sourcePoint" />
            <mxPoint x="1336" y="224" as="targetPoint" />
          </mxGeometry>
        </mxCell>
        <mxCell id="o00eqZ2eqSjmYFLEJ0mG-81" value="" style="endArrow=classic;startArrow=classic;html=1;rounded=0;entryX=0.411;entryY=0.948;entryDx=0;entryDy=0;exitX=0.548;exitY=-0.012;exitDx=0;exitDy=0;exitPerimeter=0;entryPerimeter=0;" edge="1" parent="1" source="o00eqZ2eqSjmYFLEJ0mG-72" target="o00eqZ2eqSjmYFLEJ0mG-71">
          <mxGeometry width="50" height="50" relative="1" as="geometry">
            <mxPoint x="1380" y="230" as="sourcePoint" />
            <mxPoint x="1430" y="180" as="targetPoint" />
          </mxGeometry>
        </mxCell>
        <mxCell id="o00eqZ2eqSjmYFLEJ0mG-83" value="DI" style="rounded=0;whiteSpace=wrap;html=1;" vertex="1" parent="1">
          <mxGeometry x="1475" y="142" width="70" height="278" as="geometry" />
        </mxCell>
        <mxCell id="o00eqZ2eqSjmYFLEJ0mG-84" value="Authentication" style="rounded=1;whiteSpace=wrap;html=1;" vertex="1" parent="1">
          <mxGeometry x="1565" y="151" width="120" height="60" as="geometry" />
        </mxCell>
        <mxCell id="o00eqZ2eqSjmYFLEJ0mG-85" value="Notes Fetch" style="rounded=1;whiteSpace=wrap;html=1;" vertex="1" parent="1">
          <mxGeometry x="1565" y="226" width="120" height="60" as="geometry" />
        </mxCell>
        <mxCell id="o00eqZ2eqSjmYFLEJ0mG-86" value="Notes Details&lt;br&gt;CRUD" style="rounded=1;whiteSpace=wrap;html=1;" vertex="1" parent="1">
          <mxGeometry x="1565" y="301" width="120" height="60" as="geometry" />
        </mxCell>
        <mxCell id="o00eqZ2eqSjmYFLEJ0mG-87" value="" style="endArrow=classic;html=1;rounded=0;exitX=0.991;exitY=0.359;exitDx=0;exitDy=0;exitPerimeter=0;entryX=0;entryY=0.5;entryDx=0;entryDy=0;" edge="1" parent="1" source="o00eqZ2eqSjmYFLEJ0mG-83" target="o00eqZ2eqSjmYFLEJ0mG-84">
          <mxGeometry width="50" height="50" relative="1" as="geometry">
            <mxPoint x="1590" y="232" as="sourcePoint" />
            <mxPoint x="1640" y="180" as="targetPoint" />
          </mxGeometry>
        </mxCell>
        <mxCell id="o00eqZ2eqSjmYFLEJ0mG-88" value="" style="endArrow=classic;html=1;rounded=0;exitX=1;exitY=0.5;exitDx=0;exitDy=0;entryX=0;entryY=0.5;entryDx=0;entryDy=0;" edge="1" parent="1" source="o00eqZ2eqSjmYFLEJ0mG-83" target="o00eqZ2eqSjmYFLEJ0mG-85">
          <mxGeometry width="50" height="50" relative="1" as="geometry">
            <mxPoint x="1619" y="292" as="sourcePoint" />
            <mxPoint x="1570" y="250" as="targetPoint" />
          </mxGeometry>
        </mxCell>
        <mxCell id="o00eqZ2eqSjmYFLEJ0mG-89" value="" style="endArrow=classic;html=1;rounded=0;exitX=1;exitY=0.75;exitDx=0;exitDy=0;entryX=0.01;entryY=0.399;entryDx=0;entryDy=0;entryPerimeter=0;" edge="1" parent="1" source="o00eqZ2eqSjmYFLEJ0mG-83" target="o00eqZ2eqSjmYFLEJ0mG-86">
          <mxGeometry width="50" height="50" relative="1" as="geometry">
            <mxPoint x="1620" y="310" as="sourcePoint" />
            <mxPoint x="1641" y="269" as="targetPoint" />
          </mxGeometry>
        </mxCell>
        <mxCell id="o00eqZ2eqSjmYFLEJ0mG-93" value="" style="endArrow=classic;html=1;rounded=0;exitX=0.998;exitY=0.356;exitDx=0;exitDy=0;exitPerimeter=0;entryX=0.002;entryY=0.539;entryDx=0;entryDy=0;entryPerimeter=0;" edge="1" parent="1" source="o00eqZ2eqSjmYFLEJ0mG-99" target="o00eqZ2eqSjmYFLEJ0mG-83">
          <mxGeometry width="50" height="50" relative="1" as="geometry">
            <mxPoint x="1450" y="282.76" as="sourcePoint" />
            <mxPoint x="1476" y="307" as="targetPoint" />
          </mxGeometry>
        </mxCell>
        <mxCell id="o00eqZ2eqSjmYFLEJ0mG-94" value="Coordinator" style="rounded=0;whiteSpace=wrap;html=1;" vertex="1" parent="1">
          <mxGeometry x="1710" y="142" width="70" height="278" as="geometry" />
        </mxCell>
        <mxCell id="o00eqZ2eqSjmYFLEJ0mG-96" value="" style="endArrow=classic;html=1;rounded=0;exitX=1;exitY=0.5;exitDx=0;exitDy=0;entryX=-0.002;entryY=0.368;entryDx=0;entryDy=0;entryPerimeter=0;" edge="1" parent="1" source="o00eqZ2eqSjmYFLEJ0mG-84" target="o00eqZ2eqSjmYFLEJ0mG-94">
          <mxGeometry width="50" height="50" relative="1" as="geometry">
            <mxPoint x="1554" y="230" as="sourcePoint" />
            <mxPoint x="1575" y="191" as="targetPoint" />
          </mxGeometry>
        </mxCell>
        <mxCell id="o00eqZ2eqSjmYFLEJ0mG-97" value="" style="endArrow=classic;html=1;rounded=0;exitX=1;exitY=0.5;exitDx=0;exitDy=0;entryX=0;entryY=0.5;entryDx=0;entryDy=0;" edge="1" parent="1" source="o00eqZ2eqSjmYFLEJ0mG-85" target="o00eqZ2eqSjmYFLEJ0mG-94">
          <mxGeometry width="50" height="50" relative="1" as="geometry">
            <mxPoint x="1695" y="191" as="sourcePoint" />
            <mxPoint x="1720" y="232" as="targetPoint" />
            <Array as="points" />
          </mxGeometry>
        </mxCell>
        <mxCell id="o00eqZ2eqSjmYFLEJ0mG-98" value="" style="endArrow=classic;html=1;rounded=0;exitX=1;exitY=0.5;exitDx=0;exitDy=0;entryX=0.02;entryY=0.642;entryDx=0;entryDy=0;entryPerimeter=0;" edge="1" parent="1" source="o00eqZ2eqSjmYFLEJ0mG-86" target="o00eqZ2eqSjmYFLEJ0mG-94">
          <mxGeometry width="50" height="50" relative="1" as="geometry">
            <mxPoint x="1695" y="191" as="sourcePoint" />
            <mxPoint x="1720" y="232" as="targetPoint" />
          </mxGeometry>
        </mxCell>
        <mxCell id="o00eqZ2eqSjmYFLEJ0mG-100" value="Token Manager&lt;br&gt;Encrypted SharedPref Cache" style="rounded=1;whiteSpace=wrap;html=1;" vertex="1" parent="1">
          <mxGeometry x="1268" y="370" width="120" height="60" as="geometry" />
        </mxCell>
        <mxCell id="o00eqZ2eqSjmYFLEJ0mG-102" value="" style="endArrow=classic;startArrow=classic;html=1;rounded=0;entryX=0.468;entryY=0.986;entryDx=0;entryDy=0;entryPerimeter=0;exitX=0.436;exitY=0.018;exitDx=0;exitDy=0;exitPerimeter=0;" edge="1" parent="1" source="o00eqZ2eqSjmYFLEJ0mG-100" target="o00eqZ2eqSjmYFLEJ0mG-99">
          <mxGeometry width="50" height="50" relative="1" as="geometry">
            <mxPoint x="1440" y="390" as="sourcePoint" />
            <mxPoint x="1490" y="340" as="targetPoint" />
          </mxGeometry>
        </mxCell>
        <mxCell id="o00eqZ2eqSjmYFLEJ0mG-104" value="" style="rounded=1;whiteSpace=wrap;html=1;" vertex="1" parent="1">
          <mxGeometry x="895" y="440" width="205" height="190" as="geometry" />
        </mxCell>
        <mxCell id="o00eqZ2eqSjmYFLEJ0mG-105" value="&lt;h1 style=&quot;margin-top: 0px;&quot;&gt;Auth&lt;/h1&gt;&lt;p&gt;- register&lt;br&gt;- login&lt;br&gt;&lt;br&gt;- save access token&lt;br&gt;- save refresh token&lt;br&gt;- get Access token&lt;br&gt;- get Refresh token&lt;br&gt;- clear token&lt;/p&gt;" style="text;html=1;whiteSpace=wrap;overflow=hidden;rounded=0;" vertex="1" parent="1">
          <mxGeometry x="906.25" y="450" width="182.5" height="170" as="geometry" />
        </mxCell>
        <mxCell id="o00eqZ2eqSjmYFLEJ0mG-118" style="edgeStyle=orthogonalEdgeStyle;rounded=0;orthogonalLoop=1;jettySize=auto;html=1;entryX=0;entryY=0.5;entryDx=0;entryDy=0;" edge="1" parent="1" source="o00eqZ2eqSjmYFLEJ0mG-107" target="o00eqZ2eqSjmYFLEJ0mG-117">
          <mxGeometry relative="1" as="geometry" />
        </mxCell>
        <mxCell id="o00eqZ2eqSjmYFLEJ0mG-107" value="" style="rounded=1;whiteSpace=wrap;html=1;" vertex="1" parent="1">
          <mxGeometry x="1278" y="505" width="172" height="110" as="geometry" />
        </mxCell>
        <mxCell id="o00eqZ2eqSjmYFLEJ0mG-108" value="&lt;h1 style=&quot;margin-top: 0px;&quot;&gt;Certificate Pinner&lt;/h1&gt;&lt;p&gt;- okHttp Client (interceptors)&lt;/p&gt;" style="text;html=1;whiteSpace=wrap;overflow=hidden;rounded=0;" vertex="1" parent="1">
          <mxGeometry x="1280" y="510" width="160" height="100" as="geometry" />
        </mxCell>
        <mxCell id="o00eqZ2eqSjmYFLEJ0mG-109" value="Auth Interceptor" style="rounded=1;whiteSpace=wrap;html=1;" vertex="1" parent="1">
          <mxGeometry x="1130" y="450" width="120" height="60" as="geometry" />
        </mxCell>
        <mxCell id="o00eqZ2eqSjmYFLEJ0mG-110" value="Gzip Interceptor" style="rounded=1;whiteSpace=wrap;html=1;" vertex="1" parent="1">
          <mxGeometry x="1130" y="517.5" width="120" height="60" as="geometry" />
        </mxCell>
        <mxCell id="o00eqZ2eqSjmYFLEJ0mG-111" value="logging Interceptor" style="rounded=1;whiteSpace=wrap;html=1;" vertex="1" parent="1">
          <mxGeometry x="1130" y="590" width="120" height="60" as="geometry" />
        </mxCell>
        <mxCell id="o00eqZ2eqSjmYFLEJ0mG-113" value="" style="endArrow=classic;html=1;rounded=0;exitX=1;exitY=0.5;exitDx=0;exitDy=0;entryX=-0.001;entryY=0.3;entryDx=0;entryDy=0;entryPerimeter=0;" edge="1" parent="1" source="o00eqZ2eqSjmYFLEJ0mG-109" target="o00eqZ2eqSjmYFLEJ0mG-107">
          <mxGeometry width="50" height="50" relative="1" as="geometry">
            <mxPoint x="1258.5" y="480" as="sourcePoint" />
            <mxPoint x="1283.5" y="543" as="targetPoint" />
          </mxGeometry>
        </mxCell>
        <mxCell id="o00eqZ2eqSjmYFLEJ0mG-114" style="edgeStyle=orthogonalEdgeStyle;rounded=0;orthogonalLoop=1;jettySize=auto;html=1;entryX=0.01;entryY=0.386;entryDx=0;entryDy=0;entryPerimeter=0;" edge="1" parent="1" source="o00eqZ2eqSjmYFLEJ0mG-110" target="o00eqZ2eqSjmYFLEJ0mG-107">
          <mxGeometry relative="1" as="geometry" />
        </mxCell>
        <mxCell id="o00eqZ2eqSjmYFLEJ0mG-116" value="" style="endArrow=classic;html=1;rounded=0;entryX=0;entryY=0.5;entryDx=0;entryDy=0;exitX=1;exitY=0.536;exitDx=0;exitDy=0;exitPerimeter=0;" edge="1" parent="1" source="o00eqZ2eqSjmYFLEJ0mG-111" target="o00eqZ2eqSjmYFLEJ0mG-107">
          <mxGeometry width="50" height="50" relative="1" as="geometry">
            <mxPoint x="1280" y="630" as="sourcePoint" />
            <mxPoint x="1330" y="580" as="targetPoint" />
          </mxGeometry>
        </mxCell>
        <mxCell id="o00eqZ2eqSjmYFLEJ0mG-117" value="Token Authenticator" style="rounded=1;whiteSpace=wrap;html=1;" vertex="1" parent="1">
          <mxGeometry x="1490" y="530" width="120" height="60" as="geometry" />
        </mxCell>
      </root>
    </mxGraphModel>
  </diagram>
</mxfile>
